<?xml version="1.0" encoding="utf-8"?>
<!-- Generator: Adobe Illustrator 24.0.0, SVG Export Plug-In . SVG Version: 6.00 Build 0)  -->
<svg version="1.1" id="Layer_1" xmlns="http://www.w3.org/2000/svg" xmlns:xlink="http://www.w3.org/1999/xlink" x="0px" y="0px"
	 viewBox="0 0 1800 3200" style="enable-background:new 0 0 1800 3200;" xml:space="preserve">
<style type="text/css">
	.st0{display:none;}
	.st1{fill:#2BB673;}
</style>
<g id="Layer_1_1_" class="st0">
	
		<image style="display:inline;overflow:visible;opacity:0.29;enable-background:new    ;" width="100" height="100" xlink:href="5FCFEA3D.png"  transform="matrix(1 0 0 1 408.4468 1206.4894)">
	</image>
</g>
<g id="Layer_2_1_">
	<path class="st1" d="M1468.1,869.5c0,0-149.2-74.4-399.4-101c-250.2-26.6-215.8-260.6-215.8-260.6L895.7,19
		c0,0-678.8,451-833.3,1175.1c-154.2,724.1,841.4,1952.7,841.4,1952.7S2351.7,1258.3,1468.1,869.5z M903.8,1854.4
		c-217.7,0-394.1-176.4-394.1-394.1c0-217.4,176.4-393.8,394.1-393.8c217.4,0,393.8,176.4,393.8,393.8
		C1297.6,1678,1121.2,1854.4,903.8,1854.4z"/>
</g>
</svg>
