<svg width="35" height="35" viewBox="0 0 35 35" fill="none" xmlns="http://www.w3.org/2000/svg">
<path d="M17.5 0.921875C8.13477 0.921875 0.546875 8.50977 0.546875 17.875C0.546875 27.2402 8.13477 34.8281 17.5 34.8281C26.8652 34.8281 34.4531 27.2402 34.4531 17.875C34.4531 8.50977 26.8652 0.921875 17.5 0.921875ZM17.5 31.5469C9.91211 31.5469 3.82812 25.4629 3.82812 17.875C3.82812 10.3555 9.91211 4.20312 17.5 4.20312C25.0195 4.20312 31.1719 10.3555 31.1719 17.875C31.1719 25.4629 25.0195 31.5469 17.5 31.5469ZM15.3125 9.94531V17.875H10.7324C9.98047 17.875 9.63867 18.7637 10.1172 19.3105L16.8848 26.0781C17.2266 26.4199 17.7051 26.4199 18.0469 26.0781L24.8145 19.3105C25.3613 18.7637 24.9512 17.875 24.2676 17.875H19.6875V9.94531C19.6875 9.53516 19.2773 9.125 18.8672 9.125H16.1328C15.6543 9.125 15.3125 9.53516 15.3125 9.94531Z" fill="#737069"/>
</svg>
