<svg width="32" height="32" viewBox="0 0 32 32" fill="none" xmlns="http://www.w3.org/2000/svg">
<path d="M11.6507 13.1851C12.0986 12.8657 12.6034 12.7173 13.1003 12.7173C14.1576 12.7173 15.1739 13.3891 15.5091 14.5101C15.0798 14.1801 14.579 14.0198 14.0728 14.0198C13.5614 14.0198 13.0446 14.1854 12.5941 14.5061C11.6971 15.1447 11.3009 16.2326 11.6454 17.2647C10.2542 16.267 10.2476 14.1868 11.6507 13.1851ZM15.843 27.4951C16.9573 27.87 20.405 28.8254 24.3999 31.8L31.8 26.5225C29.8814 23.8314 30.4087 21.9486 28.5021 19.2734C27.5401 17.9259 26.8829 17.5589 26.0574 17.5589C25.7659 17.5589 25.4532 17.6053 25.0981 17.6702L25.7699 18.6109C26.0614 19.019 25.701 19.447 25.326 19.447C25.179 19.447 25.0279 19.3808 24.914 19.2204L24.3151 18.3804C24.1176 18.1021 23.842 18.0081 23.5254 18.0081C23.0682 18.0081 22.5276 18.2042 22.0135 18.3221L22.8284 19.4642C23.1173 19.871 22.7582 20.3003 22.3832 20.3003C22.2361 20.3003 22.0864 20.2341 21.9725 20.0737L21.2662 19.084C21.0701 18.8084 20.7985 18.713 20.4898 18.713C20.0141 18.713 19.447 18.9382 18.9183 19.072L19.7796 20.2804C20.0711 20.6885 19.7107 21.1165 19.3344 21.1165C19.1873 21.1165 19.0363 21.0503 18.9223 20.8913L15.427 15.998C15.1209 15.5674 14.7088 15.3885 14.3034 15.3885C13.2778 15.3885 12.2841 16.5386 13.0883 17.6675L18.2492 24.9034C17.6954 24.6993 16.7228 24.5125 16.0868 24.5125C14.1258 24.5138 13.3706 26.6656 15.843 27.4951ZM13.4037 22.6668L12.3569 21.2H7.2875C4.73025 21.2 2.65 19.1197 2.65 16.5625C2.65 12.8565 5.93467 11.4838 8.52372 11.6335C8.30245 6.04465 11.4493 2.65 15.9 2.65C20.4752 2.65 23.7056 6.35602 23.2763 11.6335C25.4811 11.5752 28.8134 12.5385 29.1195 16.0365C29.7409 16.5453 30.2458 17.1548 30.6578 17.7338C30.948 18.1406 31.1892 18.5341 31.4025 18.917C31.6556 18.1763 31.8 17.3866 31.8 16.5612C31.8 12.981 29.2149 10.009 25.8097 9.39557C25.5288 4.16182 21.2079 0 15.9 0C10.592 0 6.27122 4.16182 5.99032 9.3969C2.58507 10.0104 0 12.9823 0 16.5625C0 20.5865 3.26347 23.85 7.2875 23.85H12.2456C12.5451 23.3876 12.9373 22.9848 13.4037 22.6668Z" fill="#F5EFE1"/>
</svg>
