<svg width="36" height="40" viewBox="0 0 36 40" fill="none" xmlns="http://www.w3.org/2000/svg">
<path d="M28.9688 14.0625C27.4062 12.1094 24.8281 11.5625 22.7188 12.5781C21.5469 11.3281 19.9062 10.7812 18.2656 11.0156V5.23438C18.2656 2.42188 15.9219 0 13.1094 0C10.2188 0 7.95312 2.42188 7.95312 5.23438V17.8906C6.39062 17.2656 4.51562 17.5 3.10938 18.5938C0.765625 20.2344 0.296875 23.5156 1.9375 25.8594L10.5312 37.8906C11.4688 39.2188 13.0312 40 14.75 40H28.6562C31.0781 40 33.1094 38.3594 33.6562 36.0156L35.8438 26.7188C35.9219 26.3281 35.9219 25.9375 36 25.4688V18.9062C36 15.3125 32.3281 12.7344 28.9688 14.0625ZM7.25 21.875L9.4375 24.8438C10.1406 25.8594 11.7031 25.3906 11.7031 24.1406V5.23438C11.7031 3.28125 14.5156 3.28125 14.5156 5.23438V18.9062C14.5156 19.6094 15.0625 20.1562 15.7656 20.1562H16.3125C17.0156 20.1562 17.5625 19.6094 17.5625 18.9062V16.1719C17.5625 14.2188 20.4531 14.2188 20.4531 16.1719V18.9062C20.4531 19.6094 21 20.1562 21.7031 20.1562H22.25C22.875 20.1562 23.5 19.6094 23.5 18.9062V17.2656C23.5 15.3125 26.3125 15.3125 26.3125 17.2656V18.9062C26.3125 19.6094 26.8594 20.1562 27.5625 20.1562H28.1094C28.8125 20.1562 29.3594 19.6094 29.3594 18.9062C29.3594 16.9531 32.1719 16.9531 32.1719 18.9062V25.4688C32.1719 25.625 32.1719 25.7031 32.1719 25.8594L30.0625 35.1562C29.9062 35.8594 29.2812 36.25 28.6562 36.25H14.75C14.2812 36.25 13.8125 36.0938 13.5781 35.7031L4.98438 23.6719C3.89062 22.1094 6.15625 20.3125 7.25 21.875ZM14.75 31.25C14.75 31.9531 15.2188 32.5 15.8438 32.5H16.3125C16.8594 32.5 17.4062 31.9531 17.4062 31.25V23.75C17.4062 23.125 16.8594 22.5 16.3125 22.5H15.8438C15.2188 22.5 14.75 23.125 14.75 23.75V31.25ZM20.6094 31.25C20.6094 31.9531 21.0781 32.5 21.7031 32.5H22.1719C22.7969 32.5 23.2656 31.9531 23.2656 31.25V23.75C23.2656 23.125 22.7969 22.5 22.1719 22.5H21.7031C21.0781 22.5 20.6094 23.125 20.6094 23.75V31.25ZM26.5469 31.25C26.5469 31.9531 27.0156 32.5 27.6406 32.5H28.1094C28.6562 32.5 29.2031 31.9531 29.2031 31.25V23.75C29.2031 23.125 28.6562 22.5 28.1094 22.5H27.6406C27.0156 22.5 26.5469 23.125 26.5469 23.75V31.25Z" fill="#737069"/>
</svg>
