<svg width="126" height="126" viewBox="0 0 126 126" fill="none" xmlns="http://www.w3.org/2000/svg">
<path d="M21 110.5C18.2386 110.5 16 108.261 16 105.5V21C16 18.2386 18.2386 16 21 16H105.5C108.261 16 110.5 18.2386 110.5 21V105.5C110.5 108.261 108.261 110.5 105.5 110.5H21Z" fill="#FFD600"/>
<path d="M77.5371 86.4859C79.3536 89.4364 81.3276 92.2635 85.5093 92.2635C89.0215 92.2635 90.8643 90.5179 90.8643 88.1029C90.8643 85.2127 88.9585 84.1864 85.0945 82.5037L82.9761 81.6008C76.8625 79.0073 72.7964 75.7575 72.7964 68.8931C72.7964 62.5669 77.6395 57.7526 85.2074 57.7526C90.5965 57.7526 94.4684 59.619 97.2614 64.5067L90.6621 68.7251C89.2105 66.1316 87.6408 65.1105 85.2074 65.1105C82.7241 65.1105 81.1518 66.6776 81.1518 68.7251C81.1518 71.2556 82.7268 72.2794 86.3624 73.8465L88.4808 74.7495C95.6864 77.8181 99.7499 80.9524 99.7499 87.9979C99.7499 95.5894 93.7544 99.75 85.7061 99.75C77.8338 99.75 73.3634 95.7994 70.8749 90.909L77.5371 86.4859ZM47.1239 86.7011C48.4521 89.0794 50.4708 90.909 53.374 90.909C56.1513 90.909 57.7499 89.8118 57.7499 85.5461V57.75H66.499V86.8901C66.499 95.7285 61.3724 99.75 53.8859 99.75C47.1213 99.75 42.2388 95.1667 40.249 90.909L47.1239 86.7011Z" fill="#000001"/>
</svg>
